<?xml version="1.0" encoding="UTF-8"?>
<svg id="CutContour" xmlns="http://www.w3.org/2000/svg" version="1.1" viewBox="0 0 1327.8 705.9">
  <!-- Generator: Adobe Illustrator 29.0.0, SVG Export Plug-In . SVG Version: 2.1.0 Build 186)  -->
  <defs>
    <style>
      .st0 {
        stroke-miterlimit: 2.6;
        stroke-width: .5px;
      }

      .st0, .st1 {
        fill: none;
        stroke: #e6007e;
      }

      .st1 {
        stroke-miterlimit: 2.6;
        stroke-width: .5px;
      }
    </style>
  </defs>
  <g>
    <path class="st1" d="M1020.3,257.6l16.1-82.1c.5-2.7-.4-7.7-.4-7.7l-1.5-6h228.2v13.5s0,.2,0,.6h-25.9c-1.3,0-2.3,1-2.3,2.3s1,2.3,2.3,2.3h27c.8,2.2,2.1,4.8,4.1,7.1,4.7,5.1,27.7,32.9,27.7,63.8v273.3c0,30.9-23,58.7-27.7,63.8-2.1,2.2-3.3,4.8-4.1,7h-27c-1.3,0-2.3,1-2.3,2.3s1,2.3,2.3,2.3h25.9c0,.4,0,.6,0,.6v13.5h-228.2l1.5-6s.9-4.9.4-7.7l-16.1-82.2v-37.3l5.2-4.6s2.2-2.8,2.2-7.4v-162c0-4.6-2.2-7.4-2.2-7.4l-5.2-4.6v-37.3h0Z"/>
    <path class="st1" d="M1048.9,197.4c0,6.3,5.1,11.5,11.5,11.5s11.5-5.1,11.5-11.5-5.1-11.5-11.5-11.5-11.5,5.1-11.5,11.5Z"/>
    <circle class="st0" cx="1084" cy="257.4" r="41.1" transform="translate(-27.4 179.3) rotate(-9.3)"/>
    <path class="st1" d="M1048.9,579.1c0-6.3,5.1-11.5,11.5-11.5s11.5,5.1,11.5,11.5-5.1,11.5-11.5,11.5-11.5-5.1-11.5-11.5Z"/>
    <circle class="st1" cx="1084" cy="518.2" r="41.1"/>
    <path class="st1" d="M1224.3,363c0-1.8,1.4-3.2,3.2-3.2s3.2,1.4,3.2,3.2-1.4,3.2-3.2,3.2-3.2-1.4-3.2-3.2Z"/>
    <path class="st1" d="M1224.3,380.1c0-1.8,1.4-3.2,3.2-3.2s3.2,1.4,3.2,3.2-1.4,3.2-3.2,3.2-3.2-1.4-3.2-3.2Z"/>
    <path class="st1" d="M1224.3,396.8c0-1.8,1.4-3.2,3.2-3.2s3.2,1.4,3.2,3.2-1.4,3.2-3.2,3.2-3.2-1.4-3.2-3.2Z"/>
    <path class="st1" d="M1224.3,413.8c0-1.8,1.4-3.2,3.2-3.2s3.2,1.4,3.2,3.2-1.4,3.2-3.2,3.2-3.2-1.4-3.2-3.2Z"/>
    <polygon class="st1" points="1080.1 369.2 1093.7 372.1 1093.7 377.9 1080.1 375 1080.1 369.2"/>
    <path class="st1" d="M1080.1,382.4v-5.8c.6,0,1.4.3,2,.4l2,.4c1.3.3,2.7.6,4,.9,2.4.6,5.7,1,7.7,2,2,1,3.7,2.7,3.8,5.5,0,1.5,0,3,0,4.5s0,3,0,4.4l-4.4-1.3c0-2.4.4-5-.9-6.9-.8-1.1-1.7-1.4-3.2-1.7-1.8-.4-3.7-.8-5.5-1.2-1.8-.4-3.7-.9-5.5-1.2h0Z"/>
    <path class="st1" d="M1075.3,389.1v-6c.5,0,1.4.3,1.9.4l5.8,1.2c1.5.3,6.6,1.3,7.6,1.6,2.9.9,3.1,2.7,3.1,5.8s0,8.6,0,12.8c0,3.4-4,1.9-6.3,1.5-1.3-.3-2.5-.5-3.8-.8-1.3-.3-2.3-.9-2.8-1.7-.7-1.1-.7-2.2-.7-3.7v-4.3c0-1.3-.1-3,0-4.2l3.5.8c0,1.5,0,3.2,0,4.7s0,1.4.8,1.6c.4.1,3.6.8,4.2.9.9.2,1.6.2,1.7-.7,0-.5,0-3.9,0-4.7,0-2-.3-2.3-2.3-2.7l-8.5-1.8c-1.4-.3-2.8-.7-4.2-.9h0Z"/>
    <polygon class="st1" points="1144.7 383.6 1144.7 375.4 1146.9 375.4 1146.9 381.5 1151.7 381.5 1151.7 383.6 1144.7 383.6"/>
    <path class="st1" d="M1135.3,399.3v-23.4c0-.5.4-.9.9-.9h5.5c.5,0,.9.4.9.9v10.8h8.8v2.2h-8.8v10.4c0,.5-.4.9-.9.9h-5.5c-.5,0-.9-.4-.9-.9h0Z"/>
    <path class="st1" d="M1145,401v-8.8h7v2.1h-4.7v6.7h2.7c.6,0,1,.5,1,1v20.5c0,.6-.5,1-1,1h-6.3c-.6,0-1-.5-1-1v-20.5c0-.6.5-1,1-1h1.2,0Z"/>
    <rect class="st1" x="1141.5" y="355.8" width="7.4" height="18.3" rx=".9" ry=".9"/>
    <path class="st1" d="M1167.5,362.6h0c6.5,0,11.8,5.3,11.8,11.8v27c0,6.5-5.3,11.8-11.8,11.8h0c-6.5,0-11.8-5.3-11.8-11.8v-27c0-6.5,5.3-11.8,11.8-11.8Z"/>
    <path class="st1" d="M1148.6,314.7c0-9.6,7.8-17.4,17.4-17.4s17.3,7.8,17.3,17.4-7.8,17.4-17.3,17.4-17.3-7.8-17.3-17.4h0Z"/>
    <path class="st1" d="M1148.6,462.5c0-9.6,7.8-17.4,17.4-17.4s17.3,7.8,17.3,17.4-7.8,17.4-17.3,17.4-17.3-7.8-17.3-17.4h0Z"/>
  </g>
  <g>
    <path class="st1" d="M660.4,122.7c1.5,1.2,32.3,21.6,36.6,24.3,4.3,2.7,4.3,5.1,4.4,6.5,0,1.4,8.6,113.9,9.1,129.4s-3.6,19.2-7.1,24.6c-3.5,5.4-13,18.2-15.6,23.2-2.6,4.9-15,28.6-16.2,38.7-1.2,10.1-1.6,13.4-1.6,19l-5.1,148.3c-2.7-.4-9.5-5.6-30.7-6.4-26.6-.9-41.9-.9-68.5.1-20.9.8-28,6.1-30.7,6.5l-5.5-148.3c0-5.6-.5-8.9-1.7-19s-13.7-33.7-16.3-38.6c-2.6-4.9-12.1-17.7-15.7-23.1-3.5-5.4-7.6-9-7.2-24.6.5-15.5,8.7-128,8.7-129.4,0-1.4,0-3.8,4.4-6.5,4.3-2.7,35-23.2,36.6-24.4,1.5-1.2,2-1.9,3.5-2.3,1.5-.5,2-.8,6-2,4-1.1,15.6-2.1,22.1-2.7s24.1-.6,29.4-.6c5.2,0,22.8,0,29.4.5,6.5.5,18,1.5,22.1,2.6,4.1,1.1,4.5,1.5,6,1.9,1.5.5,2,1.2,3.5,2.3h0Z"/>
    <path class="st1" d="M656.1,142.6v25c0,1.9-1.5,3.4-3.4,3.4h-53.2"/>
    <path class="st1" d="M542.8,142.8v25c0,1.9,1.6,3.4,3.5,3.4h53.2"/>
    <path class="st1" d="M656.1,164.4v3.3c0,1.9-1.5,3.4-3.4,3.4h-53.2c0,0-53.2.2-53.2.2-1.9,0-3.4-1.5-3.4-3.4v-3.3c0,1.7,3.1,4.8,4.2,4,1.1-.8,3-2.9,4.2-3.8,1.2-.9,2.2-1.7,5.6-1.7h42.6c0,0,42.6-.1,42.6-.1,3.4,0,4.4.7,5.6,1.7,1.2.9,3.1,3,4.2,3.8s4.2-2.3,4.2-4h0Z"/>
  </g>
  <g>
    <path class="st1" d="M778.4,563.2c0,2.6-1.7,5.4-6.1,1.5-4.4-3.9-18.8-13.1-22.3-15s-10.2-4.9-12.5-5c-2.3-.1-2.3-1.5-2.5-2.4-.2-.9-18.5-149.6-20-161.7-.8-6.1,6.5-36.9,8-44.2,1.4-7,9.2-28,10.3-39.1,1.1-11.1,1.6-134.4,2-138.6.4-4.3.9-4.5,2.8-2.6,1.9,1.9,4.8,3.2,6.8,3.8,13.4,3.9,19.5,5.9,33.4,8.2v395.3Z"/>
    <path class="st1" d="M736.3,489.1c.7,15.2-.4,19.8,6.2,23.1,6.6,3.4,15.2,7.5,19,8.5,3.7,1,9.2-.3,9.5-4.3.4-4,.1-17.2.1-17.2"/>
    <path class="st1" d="M736.6,499.3c1.8-1.8,1.8-2.2,4.6-1s22.2,10.3,23.8,11.2c1.5.9,2.9,11.2,1.3,11.4"/>
    <path class="st1" d="M738.6,516.7c.6,15.2-.3,19.8,5.5,23.1,5.8,3.4,13.5,7.5,16.8,8.5,3.3,1,8.1-.3,8.5-4.3s.1-17.2.1-17.2"/>
    <path class="st1" d="M738.9,526.9c1.6-1.8,1.6-2.2,4.1-1s19.6,10.3,21,11.2c1.4.9,2.6,11.2,1.1,11.4"/>
  </g>
  <g>
    <path class="st1" d="M420.3,175l-1.1,395.3c0,2.6,1.7,5.4,6.1,1.5s18.8-13,22.3-15c3.5-1.9,10.2-4.9,12.5-5,2.3-.1,2.3-1.5,2.5-2.4s18.9-149.5,20.5-161.6c.8-6.1-6.4-36.9-7.9-44.3-1.4-7-9.1-28-10.2-39.2s-1.2-134.4-1.6-138.6c-.4-4.3-.9-4.5-2.8-2.6-1.9,1.9-4.9,3.2-6.9,3.8-13.4,3.8-19.6,5.8-33.4,8.1h0Z"/>
    <path class="st1" d="M461.5,496.2c-.7,15.2.3,19.8-6.3,23.1s-15.2,7.5-19,8.5-9.2-.3-9.5-4.3c-.4-4,0-17.2,0-17.2"/>
    <path class="st1" d="M461.2,506.5c-1.9-1.8-1.9-2.2-4.6-1.1-2.8,1.1-22.2,10.2-23.8,11.1s-3,11.2-1.3,11.4"/>
    <path class="st1" d="M459.1,523.8c-.6,15.2.3,19.8-5.5,23.1-5.8,3.3-13.5,7.5-16.8,8.5s-8.1-.3-8.4-4.3c-.3-4,0-17.2,0-17.2"/>
    <path class="st1" d="M458.8,534c-1.6-1.8-1.6-2.2-4.1-1.1-2.5,1.1-19.7,10.2-21,11.1s-2.6,11.2-1.1,11.4"/>
  </g>
  <g>
    <path class="st1" d="M385.9,182.3c-1.7,5.1-50.3,208-54.9,225.7-4.6,17.7,1.6,49.1,2.1,58.4s6.7,38.6,8.2,43.3,12.6,52.2,13.4,54.6c-8.4.9-27.8,23.2-31.2,32-.9,2.3-1.5,3.4-1.5,3.4,0,0-9.7-3.4-10.4-3.8-.7-.4-1.3-.9-1-2,.2-1.1.2-1.7.3-3.4,0-1.7.4-.9-.9-3.8-1.3-2.8-25.4-63.5-26.9-66.5-1.4-3-4.3-8.1-4.5-12.1s6.5-11.2,9.7-16c3.2-4.8,8.9-4.6,13.6-5.9s20,.5,21.4.8c1.4.3,1.2-1.1.2-2.3s-3.7-4.1-5.3-5.4c-1.5-1.2-3.8-2.5-5.4-3.5-1.6-.9-2.5-1.9-2.9-8.1-2.4-33.5.2-48.9,3.7-81.5.2-1.5-3.2-2.8-3.3-1.5s-1.1,7.2-1.8,8.4c-.6-1.8-11-6-17.7-6.1-6.7-.2-18.1,2.8-20.5,4,1.4-12,5-21.4,6.7-24.9-4.9,4.2-9.4,38.4-9.7,40.3-.3,1.9-.6,1.8-1.2,1.5s-6.4-2.5-7.1-2.8c-.6-.2-1.1-.2-.8-1.6.3-1.4,5.5-29,5.7-30.2.2-1.2-.6-2.5-1.1-3-6.4-6.4-14.7.8-18.7,4.7-2.7,2.7-5.1,8.6-9.4,18.9s-11.8,36.5-12.9,40.2c-1.2,3.7-4.4,3-6.7,1.5l-21.5-17.2c-2.1-1.4-1.6-3.2-1-6l61.2-287.1s1.1-6.8,2.1-11.9,2.9-4.4,4.5.6c4.5,14.7,17.8,23.7,29.9,18.4,1.9-.8,4.2-1.3,4.2-1.3l2.4.4c2.4.4,3.7,2.9,5.7,5.4s2.2,7.6,1.6,10.2c-.5,2.7-4.8,20.3-6.3,26.5-2.8,11.1,15.5,9.4,20.9,6.9,4.6-2.1,20.7-44.2,22.9-50.1,3.1-8.1,9.4-7.7,13.5-7.7,1.2,3.1,19.9,31.3,21.9,35.2,2,3.9,8.8,12,9.5,13.4.8,1.3,2,3,1.4,4.6s0,1.2-1.8,6.3h0Z"/>
    <path class="st1" d="M350.1,193.5c5.7,5.2,9.1,4.6,7.7,11.8s-8.8,29.5-9.6,32.5"/>
    <path class="st1" d="M356.1,198.2c-2.4,1.1-3.1.4-3.9,2.8-1,3.1-6.6,15.1-3.2,17.3,1,.6,4.5,2.2,4.5,2.2"/>
    <path class="st1" d="M303.3,542.4c-.5,2.3-2.7,3.8-5,3.3s-3.8-2.7-3.3-5,2.7-3.8,5-3.3,3.8,2.7,3.3,5Z"/>
    <path class="st1" d="M275.4,174.1c2.4-11.2,3-14.5,3.4-16.6.4-2.1,1-2.5-.4-3.7-1.5-1.1-6-3.3-7.8-4.2-1.8-1-9.7-3.9-11.7-4.8-2-.9-2.9-1.6-4.1,2s-1.4,6.3-2.6,11.9-1.3,6.5-1.3,6.5"/>
    <path class="st1" d="M276.7,168c.6-7.1.2-8.7-.9-9.5s-4.3-2.7-6.1-3.4c-1.8-.7-6.6-2.7-8.1-3.4-1.6-.7-4.1-2.7-5.4-.3-1.3,2.4-3.6,5.4-3.6,5.4"/>
    <path class="st1" d="M273,198.4c2.4-11.2,3-14.5,3.4-16.6.4-2.1,1-2.5-.5-3.7-1.6-1.2-6.4-3.3-8.2-4.3s-10.2-4-12.4-5c-2.1-.9-3.1-1.6-4.3,2-1.3,3.6-1.5,6.3-2.6,11.9-1.1,5.5-1.3,6.5-1.3,6.5"/>
    <path class="st1" d="M274.3,192.2c.6-7.1,0-8.7-1.1-9.5s-4.5-2.8-6.4-3.5c-1.9-.7-6.9-2.8-8.6-3.5s-4.3-2.7-5.7-.3c-1.4,2.4-3.7,5.4-3.7,5.4"/>
    <path class="st1" d="M348.2,306.6c.6.9.9,2,.6,3.1-.3,1.5-1.4,2.6-2.7,3.1l-10.4,3.7h0c-.8.3-.9,0-.6-1.7l3.1-15.2c.3-1.6.6-1.9,1.2-1.3l7.4,6.9c.6.3,1.1.8,1.4,1.3h0Z"/>
  </g>
  <g>
    <path class="st1" d="M663.1,558.4v45c-3,0-5.5,2.5-5.5,5.8v59.1c0,5.6-4.6,10.2-10.2,10.2h-96.8c-5.6,0-10.2-4.6-10.2-10.2v-59.1c0-3.3-2.5-5.8-5.5-5.8v-45h128.2,0Z"/>
    <rect class="st1" x="616.7" y="602.6" width="32" height="25.2" rx="7.4" ry="7.4"/>
    <rect class="st1" x="601.8" y="611.2" width="3.2" height="8.7" rx="1.6" ry="1.6"/>
    <path class="st1" d="M588.4,611.2h0c.9,0,1.6.7,1.6,1.6v5.5c0,.9-.7,1.6-1.6,1.6h0c-.9,0-1.6-.7-1.6-1.6v-5.5c0-.9.7-1.6,1.6-1.6Z"/>
    <rect class="st1" x="570.4" y="611.2" width="3.2" height="8.7" rx="1.6" ry="1.6"/>
    <rect class="st1" x="554.7" y="611.2" width="3.2" height="8.7" rx="1.6" ry="1.6"/>
  </g>
  <g>
    <path class="st1" d="M803,173.4c1.5,5.1,43.6,209.5,47.6,227.4,4,17.8-3.2,49-3.9,58.3-.8,9.2-8,38.4-9.5,43-1.6,4.6-14.3,51.8-15.1,54.1,8.4,1.2,27.1,24.1,30.2,33,.8,2.3,1.4,3.5,1.4,3.5,0,0,9.8-3.1,10.5-3.5.7-.4,1.3-.8,1.1-2-.2-1.1-.1-1.8-.2-3.4,0-1.7-.3-1,1.1-3.7,1.4-2.8,27.5-62.6,29-65.6,1.5-3,4.5-8,4.9-11.9s-6.2-11.4-9.2-16.3-8.8-4.9-13.4-6.3c-4.6-1.4-20-.1-21.5.1-1.4.3-1.1-1.2-.1-2.3,1-1.2,3.9-4,5.4-5.2,1.6-1.2,3.9-2.4,5.5-3.3,1.6-.9,2.5-1.9,3.2-8,3.5-33.4,1.4-48.9-1.1-81.6-.1-1.6,3.3-2.7,3.3-1.4s.9,7.3,1.5,8.4c.6-1.8,11.2-5.6,17.9-5.6s18,3.4,20.4,4.6c-1-12-4.3-21.6-5.9-25.1,4.8,4.4,8.2,38.7,8.4,40.6.3,1.9.5,1.8,1.1,1.6.6-.2,6.5-2.3,7.2-2.5.6-.2,1.1-.2.8-1.6-.2-1.4-4.5-29.1-4.7-30.4-.2-1.2.7-2.5,1.2-3,6.7-6.2,14.7,1.3,18.5,5.3,2.7,2.8,4.8,8.8,8.8,19.2,4,10.5,10.6,36.9,11.7,40.6,1,3.7,4.3,3.2,6.7,1.7l22-16.5c2.1-1.3,1.7-3.2,1.2-6l-51.9-289s-.8-6.9-1.7-12c-.9-5.1-2.8-4.5-4.5.4-5,14.6-18.5,23.1-30.5,17.5-1.8-.9-4.1-1.4-4.1-1.4l-2.4.3c-2.4.3-3.8,2.7-5.9,5.2s-2.4,7.5-2,10.2c.5,2.7,4.1,20.4,5.5,26.7,2.4,11.2-15.8,8.9-21.1,6.2-4.5-2.3-19.3-44.9-21.3-50.8-2.8-8.2-9.2-8-13.2-8.1-1.3,3.1-20.9,30.6-23,34.4-2.1,3.8-9.1,11.7-9.9,13.1-.8,1.3-2.1,3-1.6,4.6.5,1.6,0,1.3,1.6,6.4h0Z"/>
    <path class="st1" d="M838.4,185.7c-5.9,5-9.2,4.3-8.1,11.6,1.1,7.2,7.8,29.8,8.5,32.8"/>
    <path class="st1" d="M832.2,190.2c2.4,1.2,3.1.5,3.8,2.9.9,3.2,6.1,15.3,2.6,17.4-1,.6-4.5,2-4.5,2"/>
    <path class="st1" d="M874,536c.4,2.3,2.6,3.9,4.9,3.5,2.3-.4,3.9-2.6,3.5-4.9-.4-2.3-2.6-3.9-4.9-3.5s-3.9,2.6-3.5,4.9Z"/>
    <path class="st1" d="M913.7,168.8c-2.1-11.3-2.5-14.6-2.9-16.7-.4-2.1-.9-2.5.6-3.6s6.1-3.1,7.9-4,9.8-3.6,11.9-4.5c2-.8,2.9-1.5,4.1,2.2s1.2,6.4,2.2,11.9c.9,5.6,1.1,6.6,1.1,6.6"/>
    <path class="st1" d="M912.6,162.6c-.4-7.1.1-8.7,1.2-9.5s4.4-2.6,6.2-3.2,6.7-2.5,8.2-3.2c1.6-.7,4.2-2.6,5.5,0s3.4,5.5,3.4,5.5"/>
    <path class="st1" d="M915.3,193.1c-2.1-11.3-2.6-14.6-2.9-16.7-.4-2.1-1-2.5.6-3.6s6.5-3.1,8.3-4c1.9-.9,10.3-3.7,12.5-4.6,2.2-.9,3.1-1.5,4.3,2.1,1.2,3.7,1.3,6.4,2.2,11.9.9,5.6,1.1,6.6,1.1,6.6"/>
    <path class="st1" d="M914.2,186.9c-.3-7.1.2-8.7,1.4-9.5,1.2-.8,4.6-2.6,6.5-3.3,1.9-.7,7-2.5,8.7-3.2,1.7-.7,4.4-2.6,5.7-.1s3.5,5.5,3.5,5.5"/>
    <path class="st1" d="M836.6,298.8c-.6.9-.9,2-.7,3.1.3,1.5,1.3,2.7,2.6,3.2l10.3,4h0c.7.3.9,0,.6-1.6l-2.6-15.3c-.3-1.6-.5-1.9-1.2-1.3l-7.6,6.6c-.6.3-1.1.8-1.5,1.3h0Z"/>
  </g>
  <g>
    <path class="st1" d="M681.4,26.8c0,.7,15,88.8,15,88.8,0,0-1.2,2.1-3.3,1.5s-3.2-2.4-4.3-3.1c-1.1-.7-20.1-15-23.3-17.5-3.2-2.5-6.5-4-8.1-5.6-1.6-1.6-8.5-2.7-10.9-3.1-2.4-.4-13.7-.3-16.1-.4-2.4-.2-31.8.3-32.4.4-.5-.1-30,.2-32.4.4-2.4.2-13.7.4-16.1.9s-9.3,1.8-10.8,3.4c-1.5,1.7-4.8,3.2-7.9,5.8s-21.7,17.4-22.8,18.1c-1.1.7-2.2,2.5-4.2,3.2-2.1.7-3.3-1.4-3.3-1.4,0,0,12.6-88.5,12.6-89.2,0-.7.3-1.5,1.3-1.3,1,.1,3.5-.3,6-.3,2.5,0,7.1-1.1,10.7-2.2,3.6-1.1,5.3-1.3,8.9-2.2,3.6-.9,43.6-3.6,56.9-3.6,13.3-.4,53.4,1.2,57,2.1s5.4.9,9,2c3.6,1,8.2,2,10.7,1.9,2.5,0,5,.3,6,.1,1-.2,1.3.6,1.3,1.3h0Z"/>
    <path class="st1" d="M540.8,70.8c3.6,0,6.4-2.2,6.4-4.8,0-2.6-3-4.7-6.5-4.6-3.6,0-6.4,2.2-6.4,4.8,0,2.6,3,4.7,6.5,4.6Z"/>
  </g>
  <rect class="st1" x="14.9" y="41.2" width="137.3" height="152.3" rx="11.8" ry="11.8"/>
</svg>